#File generated from solving marker data for model 3D Gait Model
name solved_motion
datacolumns 153
datarows 1
range 0.0083300000 0.0083300000
units unknown
enforce_loops no
enforce_constraints no
endheader

time	calcn_r_tx	calcn_r_ty	calcn_r_tz	calcn_r_r1	calcn_r_r2	calcn_r_r3	calcn_l_tx	calcn_l_ty	calcn_l_tz	calcn_l_r1	calcn_l_r2	calcn_l_r3	pelvis_tx	pelvis_ty	pelvis_tz	pelvis_list	pelvis_rotation	pelvis_tilt	hip_flexion_r	hip_adduction_r	hip_rotation_r	knee_angle_r	ankle_angle_r	subtalar_angle_r	mtp_angle_r	hip_flexion_l	hip_adduction_l	hip_rotation_l	knee_angle_l	ankle_angle_l	subtalar_angle_l	mtp_angle_l	lumbar_extension	lumbar_bending	lumbar_rotation	midhip_px	midhip_py	midhip_pz	hip_r_px	hip_r_py	hip_r_pz	hip_l_px	hip_l_py	hip_l_pz	knee_r_px	knee_r_py	knee_r_pz	knee_l_px	knee_l_py	knee_l_pz	ankle_r_px	ankle_r_py	ankle_r_pz	ankle_l_px	ankle_l_py	ankle_l_pz	midasis_px	midasis_py	midasis_pz	asis_r_px	asis_r_py	asis_r_pz	asis_l_px	asis_l_py	asis_l_pz	psis_r_px	psis_r_py	psis_r_pz	psis_l_px	psis_l_py	psis_l_pz	epicondLat_r_px	epicondLat_r_py	epicondLat_r_pz	epicondLat_l_px	epicondLat_l_py	epicondLat_l_pz	epicondMed_r_px	epicondMed_r_py	epicondMed_r_pz	epicondMed_l_px	epicondMed_l_py	epicondMed_l_pz	malleolusLat_r_px	malleolusLat_r_py	malleolusLat_r_pz	malleolusLat_l_px	malleolusLat_l_py	malleolusLat_l_pz	malleolusMedv_r_px	malleolusMedv_r_py	malleolusMedv_r_pz	malleolusMedv_l_px	malleolusMedv_l_py	malleolusMedv_l_pz	heel_r_px	heel_r_py	heel_r_pz	heel_l_px	heel_l_py	heel_l_pz	sternalnotch_px	sternalnotch_py	sternalnotch_pz	xyphoidprocess_px	xyphoidprocess_py	xyphoidprocess_pz	neck_px	neck_py	neck_pz	subclavicle_r_px	subclavicle_r_py	subclavicle_r_pz	subclavicle_l_px	subclavicle_l_py	subclavicle_l_pz	toe_r_px	toe_r_py	toe_r_pz	toe_l_px	toe_l_py	toe_l_pz	thighwand_r_px	thighwand_r_py	thighwand_r_pz	thighwand_l_px	thighwand_l_py	thighwand_l_pz	upperleg1_r_px	upperleg1_r_py	upperleg1_r_pz	upperleg1_l_px	upperleg1_l_py	upperleg1_l_pz	upperleg2_r_px	upperleg2_r_py	upperleg2_r_pz	upperleg2_l_px	upperleg2_l_py	upperleg2_l_pz	shankwand_r_px	shankwand_r_py	shankwand_r_pz	shankwand_l_px	shankwand_l_py	shankwand_l_pz	lowerleg1_r_px	lowerleg1_r_py	lowerleg1_r_pz	lowerleg1_l_px	lowerleg1_l_py	lowerleg1_l_pz	
0.0083300000	0.0000000000	0.0100000000	0.0914200000	0.0000000000	0.0000000000	0.0000000000	0.0000000000	0.0100000000	-0.0914200000	0.0000000000	0.0000000000	0.0000000000	0.8247209216	0.8324230374	-0.2472232981	0.6438833675	5.5467244559	8.3552411992	-10.7703077965	3.4988672173	53.9705421868	-5.8685798426	-14.6132560349	-73.9514282208	0.0000000000	-9.4957100009	2.0766633307	38.6935105804	-7.9899003013	-22.2090621779	-69.0881995261	0.0000000000	-18.4601379715	-1.9247622323	5.4384547637	0.7599337292	0.7627205042	-0.2511710917	0.7672002083	0.7608689583	-0.1815355750	0.7526672250	0.7645720417	-0.3208065625	0.7577983958	0.4244814708	-0.1650963167	0.7401660292	0.4187940083	-0.3241951000	0.7201859125	0.0648149667	-0.1578221625	0.7156666458	0.0659503500	-0.3299708667	0.8301787667	0.8461841083	-0.2562792042	0.8416846500	0.8432524042	-0.1460284292	0.8186728750	0.8491158958	-0.3665299708	0.6533565625	0.8685783083	-0.2049004875	0.6475033667	0.8681600542	-0.2584407292	0.7587412042	0.4272127042	-0.1086703125	0.7356037833	0.4195026958	-0.3800016750	0.7394564417	0.4188583042	-0.2211611292	0.7512894208	0.4223301125	-0.2653349542	0.7141205167	0.0661973458	-0.1208419333	0.7034436000	0.0673596542	-0.3643326000	0.7195996375	0.0610348042	-0.1913687375	0.7172787333	0.0657706667	-0.2964356917	0.6734747750	0.0517745000	-0.1489961583	0.6698975083	0.0470602917	-0.3085467208	0.7983392125	1.1959413917	-0.2606865250	0.8092618125	1.0944905250	-0.2661721292	0.6910958417	1.2624685583	-0.2394678792	0.8078107000	1.1953591833	-0.2041959667	0.7951991833	1.1971283125	-0.3117110667	0.8061351375	0.0481930292	-0.1447844458	0.8042206875	0.0447684417	-0.3510386375	0.8917463625	0.5554641042	-0.1539982000	0.8600789792	0.5725901542	-0.3961866875	0.8437715625	0.5997524167	-0.1191150167	0.8461094583	0.6139640917	-0.3268059458	0.8274320417	0.5437790708	-0.1174935500	0.8338749333	0.5568646708	-0.3219526667	0.8467324333	0.1808850292	-0.1362897708	0.6947778750	0.1739389750	-0.4499844042	0.7693749125	0.1665979833	-0.1504386750	0.7074719958	0.1620887542	-0.3723166292	
